<svg xmlns="http://www.w3.org/2000/svg" viewBox="0 0 209 60.34"><title>builtUp</title><rect x="96.91" y="38.57" width="1.87" height="1.3" style="fill:#002b49"/><rect x="100.65" y="38.57" width="1.87" height="1.3" style="fill:#002b49"/><rect x="96.91" y="31.33" width="1.87" height="1.3" style="fill:#002b49"/><rect x="100.65" y="31.33" width="1.87" height="1.3" style="fill:#002b49"/><rect x="96.91" y="34.94" width="1.87" height="1.3" style="fill:#002b49"/><rect x="100.65" y="34.94" width="1.87" height="1.3" style="fill:#002b49"/><rect x="96.91" y="24.03" width="1.87" height="1.3" style="fill:#002b49"/><rect x="100.65" y="24.03" width="1.87" height="1.3" style="fill:#002b49"/><rect x="96.91" y="27.68" width="1.87" height="1.3" style="fill:#002b49"/><rect x="100.65" y="27.68" width="1.87" height="1.3" style="fill:#002b49"/><rect x="90.09" y="42.14" width="4.28" height="13.04" style="fill:#bdd4e7;stroke:#002b49;stroke-miterlimit:10"/><rect x="120.11" y="29.1" width="4.28" height="26.07" style="fill:#bdd4e7;stroke:#002b49;stroke-miterlimit:10"/><rect x="112.61" y="32.36" width="4.28" height="22.81" style="fill:#bdd4e7;stroke:#002b49;stroke-miterlimit:10"/><rect x="105.1" y="35.62" width="4.28" height="19.55" style="fill:#bdd4e7;stroke:#002b49;stroke-miterlimit:10"/><rect x="97.59" y="38.88" width="4.28" height="16.29" style="fill:#bdd4e7;stroke:#002b49;stroke-miterlimit:10"/><polygon points="127.8 56.13 85.94 56.13 85.94 21.03 87.28 21.03 87.28 54.82 127.8 54.82 127.8 56.13" style="fill:#002b49"/><rect x="89.42" y="38.57" width="1.87" height="1.3" style="fill:#002b49"/><rect x="93.16" y="38.57" width="1.87" height="1.3" style="fill:#002b49"/><rect x="89.42" y="31.33" width="1.87" height="1.3" style="fill:#002b49"/><rect x="93.16" y="31.33" width="1.87" height="1.3" style="fill:#002b49"/><rect x="89.42" y="34.94" width="1.87" height="1.3" style="fill:#002b49"/><rect x="93.16" y="34.94" width="1.87" height="1.3" style="fill:#002b49"/><rect x="104.4" y="31.33" width="1.87" height="1.3" style="fill:#002b49"/><rect x="108.14" y="31.33" width="1.87" height="1.3" style="fill:#002b49"/><rect x="89.42" y="24.03" width="1.87" height="1.3" style="fill:#002b49"/><rect x="93.16" y="24.03" width="1.87" height="1.3" style="fill:#002b49"/><rect x="104.4" y="24.03" width="1.87" height="1.3" style="fill:#002b49"/><rect x="108.14" y="24.03" width="1.87" height="1.3" style="fill:#002b49"/><rect x="111.89" y="24.03" width="1.87" height="1.3" style="fill:#002b49"/><rect x="115.63" y="24.03" width="1.87" height="1.3" style="fill:#002b49"/><rect x="119.38" y="24.03" width="1.87" height="1.3" style="fill:#002b49"/><rect x="123.12" y="24.03" width="1.87" height="1.3" style="fill:#002b49"/><rect x="89.42" y="27.68" width="1.87" height="1.3" style="fill:#002b49"/><rect x="93.16" y="27.68" width="1.87" height="1.3" style="fill:#002b49"/><rect x="104.4" y="27.68" width="1.87" height="1.3" style="fill:#002b49"/><rect x="108.14" y="27.68" width="1.87" height="1.3" style="fill:#002b49"/><rect x="111.89" y="27.68" width="1.87" height="1.3" style="fill:#002b49"/><rect x="115.63" y="27.68" width="1.87" height="1.3" style="fill:#002b49"/><rect x="127.42" y="52.74" width="1.34" height="5.47" style="fill:#002b49"/><rect x="83.8" y="20.38" width="5.62" height="1.3" style="fill:#002b49"/><rect x="39.28" y="49.91" width="22.74" height="5.21" rx="1" style="fill:#fcdc7d"/><rect x="39.28" y="49.91" width="22.74" height="5.21" rx="1" style="fill:none;stroke:#002b49;stroke-miterlimit:10"/><rect x="44.63" y="44.69" width="22.74" height="5.21" rx="1" style="fill:#fcdc7d"/><rect x="44.63" y="44.69" width="22.74" height="5.21" rx="1" style="fill:none;stroke:#002b49;stroke-miterlimit:10"/><rect x="39.28" y="39.48" width="22.74" height="5.21" rx="1" style="fill:#fcdc7d"/><rect x="39.28" y="39.48" width="22.74" height="5.21" rx="1" style="fill:none;stroke:#002b49;stroke-miterlimit:10"/><rect x="44.63" y="34.27" width="22.74" height="5.21" rx="1" style="fill:#fcdc7d"/><rect x="44.63" y="34.27" width="22.74" height="5.21" rx="1" style="fill:none;stroke:#002b49;stroke-miterlimit:10"/><rect x="0.5" y="51.21" width="22.74" height="5.21" rx="1" style="fill:#fcdc7d"/><rect x="0.5" y="51.21" width="22.74" height="5.21" rx="1" style="fill:none;stroke:#002b49;stroke-miterlimit:10"/><rect x="5.85" y="46" width="22.74" height="5.21" rx="1" style="fill:#fcdc7d"/><rect x="5.85" y="46" width="22.74" height="5.21" rx="1" style="fill:none;stroke:#002b49;stroke-miterlimit:10"/><ellipse cx="30.31" cy="44.04" rx="16.72" ry="16.29" style="fill:#fff"/><ellipse cx="30.31" cy="44.04" rx="12.7" ry="12.38" style="fill:#fcdc7d;stroke:#002b49;stroke-miterlimit:10"/><path d="M29.5,45l.05,1.23a2.41,2.41,0,0,1-.46,1.54h5V49.2H26.55V47.78h.59a.63.63,0,0,0,.43-.45,2.68,2.68,0,0,0,.16-1L27.68,45H26.52V43.62h1.11l-.05-1.7a2.9,2.9,0,0,1,.89-2.23,3.36,3.36,0,0,1,2.36-.82,3.25,3.25,0,0,1,2.29.76,2.65,2.65,0,0,1,.84,2H32.2a1.39,1.39,0,0,0-.38-1,1.46,1.46,0,0,0-1.05-.37,1.23,1.23,0,0,0-1,.46,1.79,1.79,0,0,0-.37,1.18l.06,1.7h2.24V45Z" style="fill:#002b49"/><rect x="9.64" y="37.44" width="1.79" height="1.3" transform="translate(-23.85 18.6) rotate(-45)" style="fill:#7c8c9f"/><rect x="12.16" y="34.92" width="1.79" height="1.3" transform="translate(-21.33 19.65) rotate(-45)" style="fill:#7c8c9f"/><rect x="9.89" y="34.73" width="1.34" height="1.74" transform="translate(-22.08 17.89) rotate(-45)" style="fill:#7c8c9f"/><rect x="12.35" y="37.19" width="1.34" height="1.74" transform="translate(-23.1 20.36) rotate(-45)" style="fill:#7c8c9f"/><rect x="180.42" y="49.29" width="22.74" height="5.21" rx="1" style="fill:#fcdc7d"/><rect x="180.42" y="49.29" width="22.74" height="5.21" rx="1" style="fill:none;stroke:#002b49;stroke-miterlimit:10"/><rect x="185.76" y="44.07" width="22.74" height="5.21" rx="1" style="fill:#fcdc7d"/><rect x="185.76" y="44.07" width="22.74" height="5.21" rx="1" style="fill:none;stroke:#002b49;stroke-miterlimit:10"/><rect x="180.42" y="38.86" width="22.74" height="5.21" rx="1" style="fill:#fcdc7d"/><rect x="180.42" y="38.86" width="22.74" height="5.21" rx="1" style="fill:none;stroke:#002b49;stroke-miterlimit:10"/><rect x="185.76" y="33.65" width="22.74" height="5.21" rx="1" style="fill:#fcdc7d"/><rect x="185.76" y="33.65" width="22.74" height="5.21" rx="1" style="fill:none;stroke:#002b49;stroke-miterlimit:10"/><rect x="180.42" y="28.43" width="22.74" height="5.21" rx="1" style="fill:#fcdc7d"/><rect x="180.42" y="28.43" width="22.74" height="5.21" rx="1" style="fill:none;stroke:#002b49;stroke-miterlimit:10"/><rect x="185.76" y="23.22" width="22.74" height="5.21" rx="1" style="fill:#fcdc7d"/><rect x="185.76" y="23.22" width="22.74" height="5.21" rx="1" style="fill:none;stroke:#002b49;stroke-miterlimit:10"/><rect x="180.42" y="18" width="22.74" height="5.21" rx="1" style="fill:#fcdc7d"/><rect x="180.42" y="18" width="22.74" height="5.21" rx="1" style="fill:none;stroke:#002b49;stroke-miterlimit:10"/><rect x="185.76" y="12.79" width="22.74" height="5.21" rx="1" style="fill:#fcdc7d"/><rect x="185.76" y="12.79" width="22.74" height="5.21" rx="1" style="fill:none;stroke:#002b49;stroke-miterlimit:10"/><rect x="180.42" y="7.58" width="22.74" height="5.21" rx="1" style="fill:#fcdc7d"/><rect x="180.42" y="7.58" width="22.74" height="5.21" rx="1" style="fill:none;stroke:#002b49;stroke-miterlimit:10"/><rect x="142.26" y="29.19" width="22.74" height="5.21" rx="1" style="fill:#fcdc7d"/><rect x="142.26" y="29.19" width="22.74" height="5.21" rx="1" style="fill:none;stroke:#002b49;stroke-miterlimit:10"/><rect x="147.61" y="23.84" width="22.74" height="5.21" rx="1" style="fill:#fcdc7d"/><rect x="147.61" y="23.84" width="22.74" height="5.21" rx="1" style="fill:none;stroke:#002b49;stroke-miterlimit:10"/><rect x="141.63" y="50.59" width="22.74" height="5.21" rx="1" style="fill:#fcdc7d"/><rect x="141.63" y="50.59" width="22.74" height="5.21" rx="1" style="fill:none;stroke:#002b49;stroke-miterlimit:10"/><rect x="146.98" y="45.24" width="22.74" height="5.21" rx="1" style="fill:#fcdc7d"/><rect x="146.98" y="45.24" width="22.74" height="5.21" rx="1" style="fill:none;stroke:#002b49;stroke-miterlimit:10"/><rect x="141.63" y="39.89" width="22.74" height="5.21" rx="1" style="fill:#fcdc7d"/><rect x="141.63" y="39.89" width="22.74" height="5.21" rx="1" style="fill:none;stroke:#002b49;stroke-miterlimit:10"/><rect x="146.98" y="34.54" width="22.74" height="5.21" rx="1" style="fill:#fcdc7d"/><rect x="146.98" y="34.54" width="22.74" height="5.21" rx="1" style="fill:none;stroke:#002b49;stroke-miterlimit:10"/><ellipse cx="171.44" cy="43.42" rx="16.72" ry="16.29" style="fill:#fff"/><ellipse cx="171.44" cy="43.42" rx="12.7" ry="12.38" style="fill:#fcdc7d;stroke:#002b49;stroke-miterlimit:10"/><path d="M170.63,44.39l.05,1.23a2.41,2.41,0,0,1-.46,1.54h5v1.42h-7.54V47.16h.59c.19,0,.33-.19.44-.45a2.91,2.91,0,0,0,.15-1l-.05-1.29h-1.16V43h1.12l-.06-1.7a2.86,2.86,0,0,1,.9-2.23,3.32,3.32,0,0,1,2.35-.82,3.25,3.25,0,0,1,2.29.76,2.65,2.65,0,0,1,.84,2.05h-1.76a1.39,1.39,0,0,0-.38-1,1.46,1.46,0,0,0-1-.37,1.25,1.25,0,0,0-1,.46,1.79,1.79,0,0,0-.37,1.18l.06,1.7h2.24v1.39Z" style="fill:#002b49"/><rect x="160.78" y="18.39" width="1.79" height="1.3" transform="translate(33.88 119.9) rotate(-45)" style="fill:#7c8c9f"/><rect x="163.31" y="15.87" width="1.79" height="1.3" transform="translate(36.41 120.95) rotate(-45)" style="fill:#7c8c9f"/><rect x="161.04" y="15.68" width="1.34" height="1.74" transform="translate(35.66 119.19) rotate(-45)" style="fill:#7c8c9f"/><rect x="163.5" y="18.14" width="1.34" height="1.74" transform="translate(34.64 121.65) rotate(-45)" style="fill:#7c8c9f"/><rect x="175.64" y="2.97" width="1.79" height="1.3" transform="translate(49.15 125.89) rotate(-45)" style="fill:#7c8c9f"/><rect x="178.16" y="0.44" width="1.79" height="1.3" transform="translate(51.67 126.93) rotate(-45)" style="fill:#7c8c9f"/><rect x="175.89" y="0.25" width="1.34" height="1.74" transform="translate(50.92 125.18) rotate(-45)" style="fill:#7c8c9f"/><rect x="178.36" y="2.72" width="1.34" height="1.74" transform="translate(49.9 127.64) rotate(-45)" style="fill:#7c8c9f"/><rect x="132.3" y="19.23" width="1.79" height="1.3" transform="translate(24.95 100.01) rotate(-45)" style="fill:#7c8c9f"/><rect x="134.83" y="16.71" width="1.79" height="1.3" transform="translate(27.48 101.06) rotate(-45)" style="fill:#7c8c9f"/><rect x="132.56" y="16.52" width="1.34" height="1.74" transform="translate(26.72 99.3) rotate(-45)" style="fill:#7c8c9f"/><rect x="135.02" y="18.98" width="1.34" height="1.74" transform="translate(25.7 101.76) rotate(-45)" style="fill:#7c8c9f"/><rect x="74.3" y="36.23" width="1.79" height="1.3" transform="translate(-4.06 63.98) rotate(-45)" style="fill:#7c8c9f"/><rect x="76.83" y="33.71" width="1.79" height="1.3" transform="translate(-1.53 65.02) rotate(-45)" style="fill:#7c8c9f"/><rect x="74.56" y="33.52" width="1.34" height="1.74" transform="translate(-2.28 63.27) rotate(-45)" style="fill:#7c8c9f"/><rect x="77.02" y="35.98" width="1.34" height="1.74" transform="translate(-3.3 65.73) rotate(-45)" style="fill:#7c8c9f"/></svg>