<svg xmlns="http://www.w3.org/2000/svg" viewBox="0 0 205.09 55.63"><title>calculatedFrom</title><rect x="59.07" y="37.04" width="4.09" height="2.98" transform="translate(-9.35 54.5) rotate(-45)" style="fill:#7c8c9f"/><rect x="64.85" y="31.26" width="4.09" height="2.98" transform="translate(-3.56 56.9) rotate(-45)" style="fill:#7c8c9f"/><rect x="59.66" y="30.83" width="3.06" height="3.98" transform="translate(-5.29 52.88) rotate(-45)" style="fill:#7c8c9f"/><rect x="65.3" y="36.47" width="3.06" height="3.99" transform="translate(-7.62 58.52) rotate(-45)" style="fill:#7c8c9f"/><rect x="0.5" y="9.63" width="42.8" height="41.71" rx="1" style="fill:#ffc09d"/><rect x="0.5" y="9.63" width="42.8" height="41.71" rx="1" style="fill:none;stroke:#002b49;stroke-miterlimit:10"/><path d="M24.44,25.12H19.36V20.17h5.08Zm-3.75-1.3H23.1V21.48H20.69Z" style="fill:#002b49"/><path d="M31.93,25.12H26.85V20.17h5.08Zm-3.75-1.3h2.41V21.48H28.18Z" style="fill:#002b49"/><polygon points="35.67 14.08 30.59 14.08 30.59 7.42 31.93 7.42 31.93 12.78 34.34 12.78 34.34 7.42 35.67 7.42 35.67 14.08" style="fill:#002b49"/><polygon points="13.19 14.08 8.11 14.08 8.11 7.42 9.45 7.42 9.45 12.78 11.85 12.78 11.85 7.42 13.19 7.42 13.19 14.08" style="fill:#002b49"/><path d="M39.42,25.12H34.34V20.17h5.08Zm-3.75-1.3h2.41V21.48H35.67Z" style="fill:#002b49"/><path d="M9.46,32.42H4.38v-5H9.46Zm-3.74-1.3h2.4V28.77H5.72Z" style="fill:#002b49"/><path d="M17,32.42H11.87v-5H17Zm-3.75-1.3h2.41V28.77H13.2Z" style="fill:#002b49"/><path d="M24.44,32.42H19.36v-5h5.08Zm-3.75-1.3H23.1V28.77H20.69Z" style="fill:#002b49"/><path d="M31.93,32.42H26.85v-5h5.08Zm-3.75-1.3h2.41V28.77H28.18Z" style="fill:#002b49"/><path d="M39.42,32.42H34.34v-5h5.08Zm-3.75-1.3h2.41V28.77H35.67Z" style="fill:#002b49"/><path d="M9.46,39.72H4.38V34.77H9.46Zm-3.74-1.3h2.4V36.07H5.72Z" style="fill:#002b49"/><path d="M24.44,39.72H19.36V34.77h5.08Zm-3.75-1.3H23.1V36.07H20.69Z" style="fill:#002b49"/><path d="M31.93,39.72H26.85V34.77h5.08Zm-3.75-1.3h2.41V36.07H28.18Z" style="fill:#002b49"/><path d="M39.42,39.72H34.34V34.77h5.08Zm-3.75-1.3h2.41V36.07H35.67Z" style="fill:#002b49"/><path d="M9.46,47H4.38v-5H9.46Zm-3.74-1.3h2.4V43.37H5.72Z" style="fill:#002b49"/><path d="M17,47H11.87v-5H17Zm-3.75-1.3h2.41V43.37H13.2Z" style="fill:#002b49"/><path d="M24.44,47H19.36v-5h5.08Zm-3.75-1.3H23.1V43.37H20.69Z" style="fill:#002b49"/><path d="M31.93,47H26.85v-5h5.08Zm-3.75-1.3h2.41V43.37H28.18Z" style="fill:#002b49"/><rect x="0.54" y="16.8" width="42.8" height="1.2" style="fill:#002b49"/><rect x="29.09" y="12.78" width="8.08" height="1.3" style="fill:#002b49"/><rect x="6.61" y="12.78" width="8.08" height="1.3" style="fill:#002b49"/><polygon points="13.85 39.48 11.63 37.32 12.58 36.4 13.85 37.64 15.97 35.57 16.91 36.49 13.85 39.48" style="fill:#002b49"/><ellipse cx="41.41" cy="49.01" rx="6.43" ry="6.44" style="fill:#fff"/><path d="M41,55.63a7,7,0,1,1,7.21-7A7.14,7.14,0,0,1,41,55.63Zm0-12.76a5.73,5.73,0,1,0,5.87,5.73A5.81,5.81,0,0,0,41,42.87Z" style="fill:#002b49"/><path d="M41,50a.66.66,0,0,1-.47-.19l-2.13-2.07.94-.92L41,48.38,43.49,46l.94.92-2.92,2.85A.66.66,0,0,1,41,50Z" style="fill:#002b49"/><polygon points="91.13 19.46 102.74 2.52 105.84 3.82 108.51 1.21 124.56 11.64 119.21 20.77 91.13 20 91.13 19.46" style="fill:#d8bcdd"/><path d="M84.1,49.41a1,1,0,0,1-1-1V16.55a1.17,1.17,0,0,1,1-1.12l8.71-1.06c.55-.07.79.28.54.77l-1.77,3.43a.56.56,0,0,0,.55.88l32.77-.34a1,1,0,0,1,1,1V48.41a1,1,0,0,1-1,1Z" style="fill:#bdd4e7"/><rect x="111.19" y="30.51" width="17.39" height="7.82" rx="1" style="fill:#bdd4e7"/><path d="M123.51,49.4H84.76a2.91,2.91,0,0,1-3-2.87V17.13h1.34v29.4a1.59,1.59,0,0,0,1.61,1.57h38.75a2,2,0,0,0,2.06-2V37.77h1.33V46.1A3.35,3.35,0,0,1,123.51,49.4Z" style="fill:#002b49"/><path d="M126.9,30.32h-1.33V22a2,2,0,0,0-2.06-2V18.7A3.35,3.35,0,0,1,126.9,22Z" style="fill:#002b49"/><path d="M123.51,20H84.76a2.88,2.88,0,1,1,0-5.75h9.72v1.3H84.76a1.57,1.57,0,1,0,0,3.14h38.75Z" style="fill:#002b49"/><path d="M128.11,38.43H116.56a4.38,4.38,0,1,1,0-8.76h11.55a.66.66,0,0,1,.67.65v7.45A.67.67,0,0,1,128.11,38.43ZM116.56,31a3.07,3.07,0,1,0,0,6.14h10.88V31Z" style="fill:#002b49"/><rect x="85.56" y="19.35" width="1.34" height="29.4" style="fill:#002b49"/><path d="M116.77,34.92a.87.87,0,1,1,.89-.87A.88.88,0,0,1,116.77,34.92Zm0-1.31a.45.45,0,0,0-.45.44.45.45,0,0,0,.9,0A.45.45,0,0,0,116.77,33.61Z" style="fill:#002b49"/><polygon points="91.71 19.8 90.62 19.05 103.35 1.68 107.09 4.28 106.31 5.34 103.66 3.5 91.71 19.8" style="fill:#002b49"/><polygon points="111 15.63 109.9 14.88 110.98 13.38 112.07 14.13 111 15.63" style="fill:#002b49"/><polygon points="95.83 19.73 94.74 18.98 108.64 0 126.07 12.13 120.5 19.73 119.41 18.98 124.2 12.44 108.96 1.82 95.83 19.73" style="fill:#002b49"/><path d="M115.9,19.73,114.81,19s1.88-2.55,2.7-3.68a2.92,2.92,0,0,1-.54-3.16L111.6,8.39a3,3,0,0,1-1.54.72,3.1,3.1,0,0,1-1.71-.19c-.43.58-1,1.36-1,1.36l-6.93,9.45L99.34,19l6.93-9.45h0s1-1.35,1.35-1.84l.39-.52.54.38a1.72,1.72,0,0,0,1.29.29A1.75,1.75,0,0,0,111,7.14l.39-.53,7.42,5.17-.39.53a1.67,1.67,0,0,0,.41,2.36l.53.37-.37.53Z" style="fill:#002b49"/><rect x="161.8" y="4.95" width="42.8" height="49.3" rx="1" style="fill:#abe1d7"/><rect x="161.8" y="4.95" width="42.8" height="49.3" rx="1" style="fill:none;stroke:#002b49;stroke-miterlimit:10"/><path d="M171.22,28.57h-5.08v-5h5.08Zm-3.75-1.31h2.41V24.92h-2.41Z" style="fill:#002b49"/><path d="M178.71,28.57h-5.08v-5h5.08ZM175,27.26h2.41V24.92H175Z" style="fill:#002b49"/><path d="M171.22,35.86h-5.08V30.91h5.08Zm-3.75-1.3h2.41V32.21h-2.41Z" style="fill:#002b49"/><path d="M178.71,35.86h-5.08V30.91h5.08ZM175,34.56h2.41V32.21H175Z" style="fill:#002b49"/><path d="M171.22,43.17h-5.08v-5h5.08Zm-3.75-1.31h2.41V39.52h-2.41Z" style="fill:#002b49"/><path d="M178.71,43.17h-5.08v-5h5.08ZM175,41.86h2.41V39.52H175Z" style="fill:#002b49"/><path d="M171.22,50.46h-5.08v-5h5.08Zm-3.75-1.3h2.41V46.81h-2.41Z" style="fill:#002b49"/><path d="M178.71,50.46h-5.08v-5h5.08ZM175,49.16h2.41V46.81H175Z" style="fill:#002b49"/><path d="M185.74,28.57h-5.09v-5h5.09ZM182,27.26h2.41V24.92H182Z" style="fill:#002b49"/><path d="M193.23,28.57h-5.09v-5h5.09Zm-3.75-1.31h2.41V24.92h-2.41Z" style="fill:#002b49"/><path d="M185.74,35.86h-5.09V30.91h5.09ZM182,34.56h2.41V32.21H182Z" style="fill:#002b49"/><path d="M193.23,35.86h-5.09V30.91h5.09Zm-3.75-1.3h2.41V32.21h-2.41Z" style="fill:#002b49"/><path d="M185.74,43.17h-5.09v-5h5.09ZM182,41.86h2.41V39.52H182Z" style="fill:#002b49"/><path d="M193.23,43.17h-5.09v-5h5.09Zm-3.75-1.31h2.41V39.52h-2.41Z" style="fill:#002b49"/><path d="M185.74,50.46h-5.09v-5h5.09ZM182,49.16h2.41V46.81H182Z" style="fill:#002b49"/><path d="M193.23,50.46h-5.09v-5h5.09Zm-3.75-1.3h2.41V46.81h-2.41Z" style="fill:#002b49"/><path d="M200.57,28.57h-5.08v-5h5.08Zm-3.75-1.31h2.41V24.92h-2.41Z" style="fill:#002b49"/><path d="M200.57,35.86h-5.08V30.91h5.08Zm-3.75-1.3h2.41V32.21h-2.41Z" style="fill:#002b49"/><path d="M200.57,43.17h-5.08v-5h5.08Zm-3.75-1.31h2.41V39.52h-2.41Z" style="fill:#002b49"/><path d="M200.57,50.46h-5.08v-5h5.08Zm-3.75-1.3h2.41V46.81h-2.41Z" style="fill:#002b49"/><rect x="166.19" y="11.03" width="34.65" height="8.53" style="fill:#fff;stroke:#002b49;stroke-miterlimit:10"/><path d="M194.26,13.88a1.36,1.36,0,0,1-.24.79,1.52,1.52,0,0,1-.63.54,1.72,1.72,0,0,1,.74.58,1.49,1.49,0,0,1,.27.87,1.59,1.59,0,0,1-.52,1.23,2,2,0,0,1-1.37.45,2,2,0,0,1-1.37-.46,1.52,1.52,0,0,1-.52-1.22,1.49,1.49,0,0,1,.27-.87,1.62,1.62,0,0,1,.72-.59,1.55,1.55,0,0,1-.62-.54,1.4,1.4,0,0,1-.23-.78,1.57,1.57,0,0,1,.48-1.2,2.05,2.05,0,0,1,2.54,0A1.57,1.57,0,0,1,194.26,13.88Zm-.62,2.76a1.09,1.09,0,0,0-.31-.81,1.12,1.12,0,0,0-.83-.31,1,1,0,0,0-1.12,1.12,1.06,1.06,0,0,0,.3.8,1.15,1.15,0,0,0,.83.29,1.16,1.16,0,0,0,.83-.29A1.07,1.07,0,0,0,193.64,16.64Zm-1.13-3.78a1,1,0,0,0-.72.28,1.15,1.15,0,0,0,0,1.48,1.07,1.07,0,0,0,1.44,0,1,1,0,0,0,.27-.73,1,1,0,0,0-.28-.74A.94.94,0,0,0,192.51,12.86Z" style="fill:#002b49"/><path d="M199.07,15.73a3.48,3.48,0,0,1-.45,2,1.63,1.63,0,0,1-1.42.64,1.61,1.61,0,0,1-1.4-.63,3.2,3.2,0,0,1-.48-1.88v-1a3.3,3.3,0,0,1,.46-1.95,1.89,1.89,0,0,1,2.82,0,3.2,3.2,0,0,1,.47,1.89Zm-.76-1a2.78,2.78,0,0,0-.26-1.4.94.94,0,0,0-.86-.44.92.92,0,0,0-.84.44,2.61,2.61,0,0,0-.27,1.34v1.21a2.78,2.78,0,0,0,.28,1.42.92.92,0,0,0,.84.46.93.93,0,0,0,.83-.43,2.67,2.67,0,0,0,.28-1.37Z" style="fill:#002b49"/><rect x="141.56" y="36.25" width="4.09" height="2.98" transform="translate(15.37 112.6) rotate(-45)" style="fill:#7c8c9f"/><rect x="147.34" y="30.47" width="4.09" height="2.98" transform="translate(21.15 114.99) rotate(-45)" style="fill:#7c8c9f"/><rect x="142.14" y="30.04" width="3.06" height="3.98" transform="translate(19.43 110.98) rotate(-45)" style="fill:#7c8c9f"/><rect x="147.78" y="35.68" width="3.06" height="3.99" transform="translate(17.1 116.61) rotate(-45)" style="fill:#7c8c9f"/></svg>