<svg xmlns="http://www.w3.org/2000/svg" viewBox="0 0 210.04 44.59"><title>receivePension</title><rect x="81.42" y="13" width="3" height="3" style="fill:#7c8c9f"/><rect x="75.42" y="13" width="3" height="3" style="fill:#7c8c9f"/><rect x="69.43" y="13" width="3" height="3" style="fill:#7c8c9f"/><rect x="63.43" y="13" width="3" height="3" style="fill:#7c8c9f"/><rect x="105.39" y="13" width="3" height="3" style="fill:#7c8c9f"/><rect x="99.4" y="13" width="3" height="3" style="fill:#7c8c9f"/><rect x="93.4" y="13" width="3" height="3" style="fill:#7c8c9f"/><rect x="87.41" y="13" width="3" height="3" style="fill:#7c8c9f"/><rect x="57.44" y="13" width="3" height="3" style="fill:#7c8c9f"/><rect x="51.44" y="13" width="3" height="3" style="fill:#7c8c9f"/><rect x="45.45" y="13" width="3" height="3" style="fill:#7c8c9f"/><rect x="39.46" y="13" width="3" height="3" style="fill:#7c8c9f"/><rect x="162.01" y="13" width="3" height="3" style="fill:#7c8c9f"/><rect x="156.01" y="13" width="3" height="3" style="fill:#7c8c9f"/><rect x="150.02" y="13" width="3" height="3" style="fill:#7c8c9f"/><rect x="144.02" y="13" width="3" height="3" style="fill:#7c8c9f"/><rect x="185.98" y="13" width="3" height="3" style="fill:#7c8c9f"/><rect x="179.99" y="13" width="3" height="3" style="fill:#7c8c9f"/><rect x="173.99" y="13" width="3" height="3" style="fill:#7c8c9f"/><rect x="168" y="13" width="3" height="3" style="fill:#7c8c9f"/><rect x="138.03" y="13" width="3" height="3" style="fill:#7c8c9f"/><rect x="132.04" y="13" width="3" height="3" style="fill:#7c8c9f"/><rect x="126.04" y="13" width="3" height="3" style="fill:#7c8c9f"/><rect x="120.05" y="13" width="3" height="3" style="fill:#7c8c9f"/><rect x="17.98" y="13" width="3" height="3" style="fill:#7c8c9f"/><rect x="11.99" y="13" width="3" height="3" style="fill:#7c8c9f"/><rect x="5.99" y="13" width="3" height="3" style="fill:#7c8c9f"/><rect y="13" width="3" height="3" style="fill:#7c8c9f"/><rect x="207.04" y="13" width="3" height="3" style="fill:#7c8c9f"/><rect x="201.05" y="13" width="3" height="3" style="fill:#7c8c9f"/><ellipse cx="36.32" cy="14.44" rx="12.7" ry="12.38" style="fill:#fcdc7d;stroke:#002b49;stroke-miterlimit:10"/><path d="M35.52,15.41l0,1.23a2.49,2.49,0,0,1-.45,1.54h5v1.41H32.56V18.18h.59c.19,0,.33-.19.44-.45a2.91,2.91,0,0,0,.15-1l-.05-1.29H32.53V14h1.12l-.06-1.69a2.86,2.86,0,0,1,.9-2.23,3.33,3.33,0,0,1,2.35-.82,3.29,3.29,0,0,1,2.3.76A2.66,2.66,0,0,1,40,12.08H38.21a1.37,1.37,0,0,0-.38-1,1.42,1.42,0,0,0-1-.37,1.22,1.22,0,0,0-1,.46,1.77,1.77,0,0,0-.37,1.18L35.46,14H37.7v1.4Z" style="fill:#002b49"/><polygon points="12.43 27.81 21.86 36.75 24.15 34.89 36.19 33.59 50.9 25.77 50.9 23.16 49.56 21.86 42.87 24.46 36.54 26.2 36.19 25.77 36.19 23.16 33.51 21.86 26.82 21.86 21.48 21.86 18.8 21.86 12.43 27.81" style="fill:#fff"/><path d="M12.92,28.28,12,27.37l5-4.93a7.72,7.72,0,0,1,5.57-1.85l.89,0a10.2,10.2,0,0,1,3.92,1H34a2.8,2.8,0,0,1,2.84,2.77,3.09,3.09,0,0,1-3.28,3.19H27.65V26.3h5.86a1.8,1.8,0,0,0,1.94-1.89A1.49,1.49,0,0,0,34,22.94H27l-.14-.07a9.16,9.16,0,0,0-3.53-1l-.83,0c-2.13,0-3.6.47-4.62,1.47Z" style="fill:#002b49"/><path d="M22.38,37.27l-.94-.92,2.13-2.08,13.45-2c.87-.36,9.29-3.83,13-6.58l.13-.11a1.66,1.66,0,0,0,.69-1.16,1.59,1.59,0,0,0-.37-1.25,1.74,1.74,0,0,0-2.35-.27C45.24,25,38.71,27,38.44,27.11a44.18,44.18,0,0,1-4.93.49V26.3c1.53,0,4.59-.45,4.62-.45h0s6.49-2.06,9.19-4a3.09,3.09,0,0,1,4.18.48,2.9,2.9,0,0,1,.67,2.24,2.93,2.93,0,0,1-1.18,2l-.14.11c-4.05,3-13,6.64-13.39,6.8l-.16,0-13.09,2Z" style="fill:#002b49"/><path d="M20.36,43.8a1,1,0,0,1-1.43,0L6.36,31.55a1,1,0,0,1,0-1.39L10.6,26A1,1,0,0,1,12,26L24.6,38.27a1,1,0,0,1,0,1.4Z" style="fill:#c2a0d6"/><path d="M20.36,43.8a1,1,0,0,1-1.43,0L6.36,31.55a1,1,0,0,1,0-1.39L10.6,26A1,1,0,0,1,12,26L24.6,38.27a1,1,0,0,1,0,1.4Z" style="fill:none;stroke:#002b49;stroke-miterlimit:10"/><ellipse cx="111.54" cy="14.19" rx="12.7" ry="12.38" style="fill:#fcdc7d;stroke:#002b49;stroke-miterlimit:10"/><path d="M110.74,15.15l.05,1.24a2.43,2.43,0,0,1-.46,1.54h5v1.41h-7.53V17.93h.59a.68.68,0,0,0,.43-.46,2.83,2.83,0,0,0,.16-1l-.06-1.3h-1.15V13.76h1.11l-.05-1.69a2.87,2.87,0,0,1,.89-2.24A3.4,3.4,0,0,1,112.07,9a3.27,3.27,0,0,1,2.29.77,2.63,2.63,0,0,1,.83,2.05h-1.76a1.37,1.37,0,0,0-.37-1,1.43,1.43,0,0,0-1-.37,1.22,1.22,0,0,0-1,.45,1.82,1.82,0,0,0-.37,1.19l.06,1.69h2.23v1.39Z" style="fill:#002b49"/><polygon points="87.66 27.55 97.08 36.5 99.38 34.64 111.41 33.34 126.12 25.52 126.12 22.91 124.79 21.61 118.1 24.21 111.76 25.95 111.41 25.52 111.41 22.91 108.74 21.61 102.05 21.61 96.7 21.61 94.03 21.61 87.66 27.55" style="fill:#fff"/><path d="M88.15,28l-1-.92,5-4.92a7.75,7.75,0,0,1,5.58-1.85c.29,0,.59,0,.88,0a10.12,10.12,0,0,1,3.93,1h6.61A2.81,2.81,0,0,1,112,24.16a3.1,3.1,0,0,1-3.28,3.19h-5.87v-1.3h5.87a1.8,1.8,0,0,0,1.94-1.89,1.49,1.49,0,0,0-1.5-1.47h-6.93l-.14-.07a8.9,8.9,0,0,0-3.53-1l-.82,0a6.28,6.28,0,0,0-4.63,1.47Z" style="fill:#002b49"/><path d="M97.61,37l-1-.93L98.8,34l13.44-2c.88-.36,9.3-3.84,13-6.58l.14-.12a1.63,1.63,0,0,0,.31-2.4,1.72,1.72,0,0,0-2.34-.27c-2.88,2.1-9.41,4.16-9.69,4.25a43.92,43.92,0,0,1-4.92.49v-1.3a43,43,0,0,0,4.62-.46h0s6.49-2.05,9.18-4a3.1,3.1,0,0,1,4.18.49,2.85,2.85,0,0,1,.68,2.23,2.93,2.93,0,0,1-1.19,2l-.13.11c-4.06,3-13,6.65-13.4,6.8l-.15,0-13.1,2Z" style="fill:#002b49"/><path d="M95.58,43.55a1,1,0,0,1-1.43,0L81.58,31.3a1,1,0,0,1,0-1.39l4.25-4.14a1,1,0,0,1,1.43,0L99.82,38a1,1,0,0,1,0,1.4Z" style="fill:#c2a0d6"/><path d="M95.58,43.55a1,1,0,0,1-1.43,0L81.58,31.3a1,1,0,0,1,0-1.39l4.25-4.14a1,1,0,0,1,1.43,0L99.82,38a1,1,0,0,1,0,1.4Z" style="fill:none;stroke:#002b49;stroke-miterlimit:10"/><ellipse cx="186.77" cy="12.88" rx="12.7" ry="12.38" style="fill:#fcdc7d;stroke:#002b49;stroke-miterlimit:10"/><path d="M186,13.85l.05,1.23a2.47,2.47,0,0,1-.46,1.54h5V18H183V16.62h.59c.19,0,.33-.19.44-.45a2.89,2.89,0,0,0,.15-1l-.05-1.3H183V12.46h1.12l-.06-1.7a2.87,2.87,0,0,1,.9-2.23,3.33,3.33,0,0,1,2.35-.82,3.27,3.27,0,0,1,2.3.76,2.67,2.67,0,0,1,.83,2h-1.76a1.39,1.39,0,0,0-.38-1,1.46,1.46,0,0,0-1.05-.37,1.25,1.25,0,0,0-1,.46,1.79,1.79,0,0,0-.37,1.18l.07,1.7h2.23v1.39Z" style="fill:#002b49"/><polygon points="162.88 26.25 172.31 35.2 174.6 33.34 186.64 32.03 201.35 24.21 201.35 21.61 200.01 20.3 193.32 22.91 186.99 24.64 186.64 24.21 186.64 21.61 183.96 20.3 177.28 20.3 171.93 20.3 169.25 20.3 162.88 26.25" style="fill:#fff"/><path d="M163.37,26.73l-1-.92,5-4.92A7.74,7.74,0,0,1,173,19l.89,0a10.3,10.3,0,0,1,3.93,1h6.6a2.8,2.8,0,0,1,2.84,2.77,3.1,3.1,0,0,1-3.28,3.2H178.1V24.74H184a1.8,1.8,0,0,0,1.95-1.89,1.49,1.49,0,0,0-1.51-1.46h-6.92l-.14-.07a8.82,8.82,0,0,0-3.53-1c-.28,0-.55,0-.83,0-2.12,0-3.59.46-4.62,1.47Z" style="fill:#002b49"/><path d="M172.84,35.71l-1-.92L174,32.71l13.45-2c.87-.36,9.29-3.84,13-6.59l.13-.11a1.71,1.71,0,0,0,.7-1.15,1.65,1.65,0,0,0-.38-1.26,1.75,1.75,0,0,0-2.35-.27c-2.88,2.11-9.41,4.17-9.68,4.25a41.24,41.24,0,0,1-4.93.5V24.74c1.53,0,4.59-.45,4.62-.45h0s6.49-2.06,9.19-4a3.09,3.09,0,0,1,4.18.49,2.93,2.93,0,0,1-.51,4.25l-.14.11c-4.05,3-13,6.64-13.39,6.8l-.15,0-13.1,2Z" style="fill:#002b49"/><path d="M170.81,42.25a1,1,0,0,1-1.43,0L156.81,30a1,1,0,0,1,0-1.4l4.24-4.13a1,1,0,0,1,1.43,0l12.57,12.25a1,1,0,0,1,0,1.39Z" style="fill:#c2a0d6"/><path d="M170.81,42.25a1,1,0,0,1-1.43,0L156.81,30a1,1,0,0,1,0-1.4l4.24-4.13a1,1,0,0,1,1.43,0l12.57,12.25a1,1,0,0,1,0,1.39Z" style="fill:none;stroke:#002b49;stroke-miterlimit:10"/></svg>